<svg width="292" height="286" viewBox="0 0 292 286" fill="none" xmlns="http://www.w3.org/2000/svg">
  <defs>
    <linearGradient id="blueA" x1="42" y1="57" x2="148" y2="242" gradientUnits="userSpaceOnUse">
      <stop stop-color="#f8fdff"/>
      <stop offset="1" stop-color="#c8efff"/>
    </linearGradient>
    <linearGradient id="blueB" x1="151" y1="38" x2="253" y2="224" gradientUnits="userSpaceOnUse">
      <stop stop-color="#0aa2ea"/>
      <stop offset="1" stop-color="#07456d"/>
    </linearGradient>
    <filter id="float" x="8" y="20" width="276" height="252" filterUnits="userSpaceOnUse" color-interpolation-filters="sRGB">
      <feDropShadow dx="0" dy="16" stdDeviation="14" flood-color="#05365a" flood-opacity=".24"/>
    </filter>
  </defs>
  <circle cx="60" cy="70" r="35" fill="#d6f7ff" opacity=".8"/>
  <circle cx="226" cy="52" r="29" fill="#67d0ff" opacity=".35"/>
  <circle cx="232" cy="226" r="43" fill="#d2f5ff" opacity=".32"/>
  <g filter="url(#float)">
    <rect x="43" y="67" width="96" height="154" rx="24" fill="#06385b"/>
    <rect x="52" y="77" width="78" height="134" rx="17" fill="url(#blueA)"/>
    <rect x="66" y="95" width="50" height="50" rx="18" fill="#0a91d2"/>
    <circle cx="91" cy="112" r="10" fill="#e8fbff"/>
    <path d="M72 139C78 128 104 128 110 139" stroke="#e8fbff" stroke-width="6" stroke-linecap="round"/>
    <rect x="67" y="162" width="49" height="9" rx="4.5" fill="#0b84bf" opacity=".35"/>
    <rect x="67" y="180" width="38" height="9" rx="4.5" fill="#0b84bf" opacity=".25"/>
    <rect x="154" y="48" width="96" height="154" rx="24" fill="#062f4d"/>
    <rect x="163" y="58" width="78" height="134" rx="17" fill="url(#blueB)"/>
    <rect x="178" y="76" width="49" height="49" rx="18" fill="#effbff"/>
    <circle cx="202" cy="93" r="10" fill="#0879b2"/>
    <path d="M184 120C190 109 215 109 221 120" stroke="#0879b2" stroke-width="6" stroke-linecap="round"/>
    <path d="M182 159L196 145L209 154L224 134" stroke="#bff2ff" stroke-width="7" stroke-linecap="round" stroke-linejoin="round"/>
    <rect x="180" y="172" width="46" height="8" rx="4" fill="#dbf8ff" opacity=".82"/>
  </g>
  <path d="M126 134H166" stroke="#ffffff" stroke-width="8" stroke-linecap="round"/>
  <path d="M155 123L169 134L155 145" stroke="#ffffff" stroke-width="8" stroke-linecap="round" stroke-linejoin="round"/>
  <rect x="92" y="234" width="108" height="31" rx="15.5" fill="#ffffff" opacity=".92"/>
  <path d="M115 250H177" stroke="#0a8fd0" stroke-width="7" stroke-linecap="round"/>
</svg>
