<svg xmlns="http://www.w3.org/2000/svg" width="23" height="26" viewBox="0 0 23 26" fill="none" aria-hidden="true">
  <path
    d="M11.5 1.5c-3.6 0-6.5 2.7-6.5 6.2 0 2.2 1 4.1 2.6 5.3.9.7 1.4 1.6 1.6 2.6v1.4h4.6v-1.4c.2-1 .7-1.9 1.6-2.6 1.6-1.2 2.6-3.1 2.6-5.3 0-3.5-2.9-6.2-6.5-6.2Z"
    stroke="#111"
    stroke-width="1.6"
    stroke-linejoin="round"
  />
  <path d="M8.2 18.5h6.6v2.2c0 1.2-1 2.3-3.3 2.3s-3.3-1.1-3.3-2.3v-2.2Z" fill="#FFD54F" stroke="#111" stroke-width="1.4" />
  <path d="M7 21.8h9" stroke="#111" stroke-width="1.4" stroke-linecap="round" />
</svg>
