<svg preserveAspectRatio="xMidYMid meet" width="100%" height="100%" overflow="visible" style="display: block;" viewBox="0 0 14.25 14.25" fill="none" xmlns="http://www.w3.org/2000/svg">
<path id="Vector" d="M12.6667 0H1.58333C0.7125 0 0 0.7125 0 1.58333V12.6667C0 13.5375 0.7125 14.25 1.58333 14.25H12.6667C13.5375 14.25 14.25 13.5375 14.25 12.6667V1.58333C14.25 0.7125 13.5375 0 12.6667 0ZM3.95833 11.0833C3.52292 11.0833 3.16667 10.7271 3.16667 10.2917V6.33333C3.16667 5.89792 3.52292 5.54167 3.95833 5.54167C4.39375 5.54167 4.75 5.89792 4.75 6.33333V10.2917C4.75 10.7271 4.39375 11.0833 3.95833 11.0833ZM7.125 11.0833C6.68958 11.0833 6.33333 10.7271 6.33333 10.2917V3.95833C6.33333 3.52292 6.68958 3.16667 7.125 3.16667C7.56042 3.16667 7.91667 3.52292 7.91667 3.95833V10.2917C7.91667 10.7271 7.56042 11.0833 7.125 11.0833ZM10.2917 11.0833C9.85625 11.0833 9.5 10.7271 9.5 10.2917V8.70833C9.5 8.27292 9.85625 7.91667 10.2917 7.91667C10.7271 7.91667 11.0833 8.27292 11.0833 8.70833V10.2917C11.0833 10.7271 10.7271 11.0833 10.2917 11.0833Z" fill="var(--fill-0, #B21EDB)"/>
</svg>
