<svg preserveAspectRatio="xMidYMid meet" width="100%" height="100%" overflow="visible" style="display: block;" viewBox="0 0 14.25 14.25" fill="none" xmlns="http://www.w3.org/2000/svg">
<path id="Vector" d="M1.58333 14.25C1.14792 14.25 0.775306 14.0951 0.4655 13.7853C0.155694 13.4755 0.000527778 13.1026 0 12.6667V1.58333C0 1.14792 0.155167 0.775306 0.4655 0.4655C0.775833 0.155694 1.14844 0.000527778 1.58333 0H12.6667C13.1021 0 13.475 0.155167 13.7853 0.4655C14.0956 0.775833 14.2505 1.14844 14.25 1.58333V12.6667C14.25 13.1021 14.0951 13.475 13.7853 13.7853C13.4755 14.0956 13.1026 14.2505 12.6667 14.25H1.58333ZM2.375 11.0833H11.875L8.90625 7.125L6.53125 10.2917L4.75 7.91667L2.375 11.0833Z" fill="var(--fill-0, #1A2FEB)"/>
</svg>
