<svg preserveAspectRatio="xMidYMid meet" width="100%" height="100%" overflow="visible" style="display: block;" viewBox="0 0 15 15" fill="none" xmlns="http://www.w3.org/2000/svg">
<path id="Vector" d="M8.75 1.25C8.75 0.918479 8.6183 0.600537 8.38388 0.366116C8.14946 0.131696 7.83152 0 7.5 0C7.16848 0 6.85054 0.131696 6.61612 0.366116C6.3817 0.600537 6.25 0.918479 6.25 1.25V6.25H1.25C0.918479 6.25 0.600537 6.3817 0.366116 6.61612C0.131696 6.85054 0 7.16848 0 7.5C0 7.83152 0.131696 8.14946 0.366116 8.38388C0.600537 8.6183 0.918479 8.75 1.25 8.75H6.25V13.75C6.25 14.0815 6.3817 14.3995 6.61612 14.6339C6.85054 14.8683 7.16848 15 7.5 15C7.83152 15 8.14946 14.8683 8.38388 14.6339C8.6183 14.3995 8.75 14.0815 8.75 13.75V8.75H13.75C14.0815 8.75 14.3995 8.6183 14.6339 8.38388C14.8683 8.14946 15 7.83152 15 7.5C15 7.16848 14.8683 6.85054 14.6339 6.61612C14.3995 6.3817 14.0815 6.25 13.75 6.25H8.75V1.25Z" fill="var(--fill-0, #B37003)"/>
</svg>
