<svg preserveAspectRatio="xMidYMid meet" width="100%" height="100%" overflow="visible" style="display: block;" viewBox="0 0 18.9579 18.9867" fill="none" xmlns="http://www.w3.org/2000/svg">
<g id="Group">
<path id="Vector" d="M10.1365 18.3081V11.1831C10.1365 10.7332 10.3152 10.3017 10.6334 9.98354C10.9515 9.6654 11.383 9.48667 11.8329 9.48667C12.2828 9.48667 12.7143 9.6654 13.0325 9.98354C13.3506 10.3017 13.5294 10.7332 13.5294 11.1831V14.9152H16.2436C16.9635 14.9152 17.6539 15.2012 18.1629 15.7102C18.672 16.2193 18.9579 16.9097 18.9579 17.6295V18.3081" fill="var(--fill-0, #067400)"/>
<path id="Vector_2" fill-rule="evenodd" clip-rule="evenodd" d="M6.48676e-07 5.99202C0.00152969 5.1277 0.189699 4.27389 0.551642 3.489C0.913585 2.7041 1.44076 2.00663 2.09713 1.44427C2.75349 0.881913 3.52357 0.467934 4.35468 0.230644C5.1858 -0.00664684 6.05836 -0.0616522 6.9127 0.0693889C7.76703 0.20043 8.583 0.514427 9.30479 0.989908C10.0266 1.46539 10.6372 2.09114 11.0948 2.82437C11.5525 3.5576 11.8464 4.38101 11.9564 5.2383C12.0665 6.09559 11.9901 6.96654 11.7325 7.7916C10.8504 7.81772 10.0132 8.18649 9.39852 8.81967C8.78384 9.45286 8.44004 10.3006 8.44007 11.1831V11.4803C7.52595 11.8865 6.52482 12.0578 5.52766 11.9786C4.5305 11.8995 3.56893 11.5724 2.73033 11.0271C1.89174 10.4818 1.20272 9.73554 0.725889 8.85621C0.249058 7.97688 -0.000464333 6.99232 6.48676e-07 5.99202ZM6.00264 1.5976C6.47221 1.5976 6.85086 1.9776 6.85086 2.44581V2.82988C7.18437 2.90668 7.49313 3.06632 7.74861 3.29404C8.00408 3.52176 8.19802 3.81022 8.3125 4.13274C8.34966 4.2378 8.36576 4.34915 8.35989 4.46044C8.35401 4.57172 8.32628 4.68076 8.27826 4.78133C8.23025 4.88189 8.16289 4.97202 8.08005 5.04655C7.99721 5.12109 7.90049 5.17858 7.79543 5.21574C7.69037 5.2529 7.57901 5.269 7.46773 5.26312C7.35644 5.25725 7.24741 5.22951 7.14684 5.1815C7.04627 5.13348 6.95615 5.06613 6.88161 4.98329C6.80708 4.90044 6.74959 4.80373 6.71243 4.69867C6.68874 4.63399 6.64593 4.57806 6.58969 4.53831C6.53345 4.49855 6.46644 4.47685 6.39757 4.4761H5.4815C5.43085 4.47698 5.38226 4.49634 5.3449 4.53055C5.30753 4.56476 5.28396 4.61145 5.27862 4.66183C5.27328 4.71221 5.28655 4.7628 5.31591 4.80408C5.34528 4.84536 5.38873 4.87448 5.43807 4.88595L6.83186 5.18995C7.28245 5.28903 7.68591 5.53852 7.97586 5.89738C8.2658 6.25624 8.42498 6.70311 8.42719 7.16446C8.4294 7.62581 8.27452 8.07418 7.98802 8.43581C7.70153 8.79743 7.30048 9.05078 6.85086 9.15417V9.5396C6.85086 9.76456 6.76149 9.9803 6.60242 10.1394C6.44335 10.2984 6.2276 10.3878 6.00264 10.3878C5.77768 10.3878 5.56194 10.2984 5.40287 10.1394C5.24379 9.9803 5.15443 9.76456 5.15443 9.5396V9.15552C4.82117 9.07852 4.51268 8.91879 4.25746 8.69108C4.00223 8.46337 3.8085 8.17502 3.69414 7.85267C3.6191 7.64048 3.63141 7.40718 3.72838 7.20408C3.82535 7.00098 3.99903 6.84471 4.21121 6.76967C4.4234 6.69462 4.6567 6.70694 4.8598 6.80391C5.06291 6.90088 5.21917 7.07456 5.29421 7.28674C5.3179 7.35141 5.36071 7.40734 5.41695 7.4471C5.47319 7.48685 5.5402 7.50855 5.60907 7.50931H6.39757C6.47887 7.50731 6.55666 7.47582 6.61647 7.42072C6.67627 7.36561 6.71401 7.29065 6.72264 7.20979C6.73128 7.12893 6.71022 7.04768 6.6634 6.98119C6.61658 6.9147 6.54718 6.8675 6.46814 6.84838L5.07571 6.54302C4.64441 6.44902 4.25916 6.20807 3.98588 5.86139C3.7126 5.51472 3.56826 5.08386 3.57756 4.64252C3.58686 4.20119 3.74921 3.77679 4.03685 3.44194C4.32449 3.10708 4.71954 2.88257 5.15443 2.80681V2.44581C5.15443 1.97624 5.53443 1.5976 6.00264 1.5976ZM10.1365 11.1831V18.9867H18.9579V17.6295C18.9579 16.9096 18.672 16.2193 18.1629 15.7102C17.6539 15.2012 16.9635 14.9152 16.2436 14.9152H13.5294V11.1831C13.5294 10.7332 13.3506 10.3017 13.0325 9.98354C12.7143 9.6654 12.2829 9.48667 11.8329 9.48667C11.383 9.48667 10.9515 9.6654 10.6334 9.98354C10.3152 10.3017 10.1365 10.7332 10.1365 11.1831Z" fill="var(--fill-0, #067400)"/>
</g>
</svg>
