<svg preserveAspectRatio="xMidYMid meet" width="100%" height="100%" overflow="visible" style="display: block;" viewBox="0 0 29.1667 29.1667" fill="none" xmlns="http://www.w3.org/2000/svg">
<path id="Vector" d="M14.5833 26.25C16.4062 26.25 17.956 25.6122 19.2325 24.3367C20.509 23.0611 21.1468 21.5114 21.1458 19.6875C21.1449 17.8636 20.5071 16.3144 19.2325 15.0398C17.9579 13.7652 16.4082 13.1269 14.5833 13.125C12.7585 13.1231 11.2092 13.7613 9.93562 15.0398C8.66201 16.3183 8.02375 17.8675 8.02083 19.6875C8.01792 21.5075 8.65618 23.0572 9.93562 24.3367C11.2151 25.6161 12.7643 26.2539 14.5833 26.25ZM10.3177 11.2292C10.8038 10.9618 11.3206 10.7494 11.8679 10.5919C12.4153 10.4344 12.968 10.3308 13.526 10.2812L9.84375 2.91667H6.19792L10.3177 11.2292ZM18.849 11.2292L23.0052 2.91667H19.3229L16.224 9.11458L16.9167 10.5C17.2569 10.5972 17.5851 10.7008 17.901 10.8106C18.217 10.9205 18.533 11.06 18.849 11.2292ZM6.41667 24.5C6.00347 23.7951 5.68118 23.0358 5.44979 22.2221C5.2184 21.4083 5.10319 20.5635 5.10417 19.6875C5.10514 18.8115 5.22083 17.9672 5.45125 17.1544C5.68167 16.3416 6.00347 15.5818 6.41667 14.875C5.39583 15.2153 4.55729 15.8171 3.90104 16.6804C3.24479 17.5437 2.91667 18.5461 2.91667 19.6875C2.91667 20.8289 3.24479 21.8317 3.90104 22.696C4.55729 23.5603 5.39583 24.1617 6.41667 24.5ZM22.75 24.5C23.7708 24.1597 24.6094 23.5584 25.2656 22.696C25.9219 21.8337 26.25 20.8308 26.25 19.6875C26.25 18.5442 25.9219 17.5418 25.2656 16.6804C24.6094 15.819 23.7708 15.2172 22.75 14.875C23.1632 15.5799 23.4855 16.3397 23.7169 17.1544C23.9483 17.9691 24.0635 18.8135 24.0625 19.6875C24.0615 20.5615 23.9458 21.4064 23.7154 22.2221C23.485 23.0378 23.1632 23.7971 22.75 24.5ZM14.5833 29.1667C13.6111 29.1667 12.6817 29.0267 11.795 28.7467C10.9083 28.4667 10.0878 28.0846 9.33333 27.6004C9.11458 27.649 8.89583 27.6797 8.67708 27.6923C8.45833 27.7049 8.22743 27.7103 7.98437 27.7083C5.77257 27.7083 3.88889 26.9306 2.33333 25.375C0.777778 23.8194 0 21.9358 0 19.724C0 17.6094 0.704861 15.7986 2.11458 14.2917C3.52431 12.7847 5.26215 11.9462 7.32812 11.776L1.45833 0H11.6667L14.5833 5.83333L17.5 0H27.7083L21.875 11.7031C23.941 11.8976 25.673 12.7483 27.071 14.2552C28.4691 15.7622 29.1676 17.5729 29.1667 19.6875C29.1667 21.9236 28.3889 23.8194 26.8333 25.375C25.2778 26.9306 23.3819 27.7083 21.1458 27.7083C20.9271 27.7083 20.7025 27.7025 20.4721 27.6908C20.2417 27.6792 20.0166 27.6485 19.7969 27.599C19.0434 28.0851 18.2292 28.4681 17.3542 28.7481C16.4792 29.0281 15.5556 29.1676 14.5833 29.1667ZM11.8854 23.6979L12.9062 20.3802L10.2083 18.4479H13.526L14.5833 14.9479L15.6406 18.4479H18.9583L16.2604 20.3802L17.2812 23.6979L14.5833 21.6562L11.8854 23.6979Z" fill="var(--fill-0, #777777)"/>
</svg>
