<svg preserveAspectRatio="xMidYMid meet" width="100%" height="100%" overflow="visible" style="display: block;" viewBox="0 0 34.6031 24.5" fill="none" xmlns="http://www.w3.org/2000/svg">
<path id="Vector" d="M6.85047 3.5H1.21547C0.567975 3.5 -0.0795251 4.06 0.00797487 4.97L2.73797 22.4525C2.73797 22.4525 5.97547 9.5725 6.60547 6.475C6.79797 5.5475 7.67297 5.25 8.32047 5.25H17.3505C17.3505 5.25 16.1255 1.61 16.003 1.2075C15.793 0.4375 15.408 0 14.638 0H8.84547C8.21547 0 7.62047 0.4025 7.44547 1.12C7.28797 1.82 6.85047 3.5 6.85047 3.5ZM15.3905 3.5H8.39047C8.39047 3.5 9.12547 1.75 9.91297 1.75H13.6405C14.4805 1.75 15.3905 3.5 15.3905 3.5ZM4.52297 23.1875C3.98047 24.01 3.19297 24.5 2.31797 24.5H29.8455C30.7905 24.5 31.4555 23.9575 31.648 23.0475C32.418 19.215 34.588 8.2775 34.588 8.2775C34.7105 7.4025 34.063 7 33.503 7H27.8505V4.4275C27.8505 4.1475 27.3955 3.5 26.6955 3.5H20.1155C19.2055 3.5 18.593 4.515 18.593 4.515L17.3505 7H9.63297C9.07297 7 8.53047 7.3325 8.42547 7.875C8.42547 7.875 5.64297 19.6 5.41547 20.7025C5.29297 21.35 5.03047 22.435 4.52297 23.1875ZM26.7655 7H19.1005C19.1005 7 20.1155 5.25 21.078 5.25H25.0855C26.328 5.25 26.7655 7 26.7655 7Z" fill="var(--fill-0, #777777)"/>
</svg>
