<svg preserveAspectRatio="xMidYMid meet" width="100%" height="100%" overflow="visible" style="display: block;" viewBox="0 0 30.1667 30.1667" fill="none" xmlns="http://www.w3.org/2000/svg">
<path id="Vector" d="M19.8229 4.875C19.3125 4.875 18.8808 4.69854 18.5279 4.34562C18.175 3.99271 17.999 3.56153 18 3.05208C18.001 2.54264 18.1774 2.11097 18.5294 1.75708C18.8813 1.40319 19.3125 1.22722 19.8229 1.22917C20.3333 1.23111 20.765 1.40757 21.1179 1.75854C21.4708 2.10951 21.6468 2.54069 21.6458 3.05208C21.6449 3.56347 21.4684 3.99514 21.1165 4.34708C20.7645 4.69903 20.3333 4.875 19.8229 4.875ZM19.8229 28.9375C19.3125 28.9375 18.8808 28.761 18.5279 28.4081C18.175 28.0552 17.999 27.624 18 27.1146C18.001 26.6051 18.1774 26.1735 18.5294 25.8196C18.8813 25.4657 19.3125 25.2897 19.8229 25.2917C20.3333 25.2936 20.765 25.4701 21.1179 25.821C21.4708 26.172 21.6468 26.6032 21.6458 27.1146C21.6449 27.626 21.4684 28.0576 21.1165 28.4096C20.7645 28.7615 20.3333 28.9375 19.8229 28.9375ZM25.6563 9.97917C25.1458 9.97917 24.7142 9.80271 24.3613 9.44979C24.0083 9.09687 23.8324 8.66569 23.8333 8.15625C23.8343 7.64681 24.0108 7.21514 24.3627 6.86125C24.7147 6.50736 25.1458 6.33139 25.6563 6.33333C26.1667 6.33528 26.5983 6.51174 26.9513 6.86271C27.3042 7.21368 27.4801 7.64486 27.4792 8.15625C27.4782 8.66764 27.3017 9.0993 26.9498 9.45125C26.5978 9.80319 26.1667 9.97917 25.6563 9.97917ZM25.6563 23.8333C25.1458 23.8333 24.7142 23.6569 24.3613 23.304C24.0083 22.951 23.8324 22.5199 23.8333 22.0104C23.8343 21.501 24.0108 21.0693 24.3627 20.7154C24.7147 20.3615 25.1458 20.1856 25.6563 20.1875C26.1667 20.1894 26.5983 20.3659 26.9513 20.7169C27.3042 21.0678 27.4801 21.499 27.4792 22.0104C27.4782 22.5218 27.3017 22.9535 26.9498 23.3054C26.5978 23.6574 26.1667 23.8333 25.6563 23.8333ZM27.8438 16.9062C27.3333 16.9062 26.9017 16.7298 26.5488 16.3769C26.1958 16.024 26.0199 15.5928 26.0208 15.0833C26.0218 14.5739 26.1983 14.1422 26.5502 13.7883C26.9022 13.4344 27.3333 13.2585 27.8438 13.2604C28.3542 13.2624 28.7858 13.4388 29.1388 13.7898C29.4917 14.1408 29.6676 14.5719 29.6667 15.0833C29.6657 15.5947 29.4892 16.0264 29.1373 16.3783C28.7853 16.7303 28.3542 16.9062 27.8438 16.9062ZM15.0833 29.6667C13.066 29.6667 11.1701 29.2836 9.39584 28.5175C7.62153 27.7514 6.07813 26.7126 4.76563 25.401C3.45313 24.0895 2.41431 22.5461 1.64917 20.7708C0.88403 18.9956 0.500974 17.0997 0.500002 15.0833C0.49903 13.0669 0.882085 11.1711 1.64917 9.39583C2.41625 7.62056 3.45507 6.07715 4.76563 4.76563C6.07618 3.4541 7.61959 2.41528 9.39584 1.64917C11.1721 0.883056 13.0679 0.5 15.0833 0.5V3.41667C11.8264 3.41667 9.06771 4.54687 6.80729 6.80729C4.54688 9.06771 3.41667 11.8264 3.41667 15.0833C3.41667 18.3403 4.54688 21.099 6.80729 23.3594C9.06771 25.6198 11.8264 26.75 15.0833 26.75V29.6667ZM19.8958 21.9375L13.625 15.6667V7.79167H16.5417V14.5L21.9375 19.8958L19.8958 21.9375Z" fill="var(--fill-0, #777777)" stroke="var(--stroke-0, #777777)"/>
</svg>
