<svg preserveAspectRatio="xMidYMid meet" width="100%" height="100%" overflow="visible" style="display: block;" viewBox="0 0 18.75 33.75" fill="none" xmlns="http://www.w3.org/2000/svg">
<path id="Vector" d="M0 22.5H3.75C3.75 24.525 6.31875 26.25 9.375 26.25C12.4312 26.25 15 24.525 15 22.5C15 20.4375 13.05 19.6875 8.925 18.6938C4.95 17.7 0 16.4625 0 11.25C0 7.89375 2.75625 5.04375 6.5625 4.0875V0H12.1875V4.0875C15.9937 5.04375 18.75 7.89375 18.75 11.25H15C15 9.225 12.4312 7.5 9.375 7.5C6.31875 7.5 3.75 9.225 3.75 11.25C3.75 13.3125 5.7 14.0625 9.825 15.0562C13.8 16.05 18.75 17.2875 18.75 22.5C18.75 25.8562 15.9937 28.7062 12.1875 29.6625V33.75H6.5625V29.6625C2.75625 28.7062 0 25.8562 0 22.5Z" fill="var(--fill-0, white)"/>
</svg>
